# File generated by ImageToStl.com - Free Image and 3D model conversion tools

o obj1
v 0.00954532 -0 0
v -0 -0 0
v 0.00954532 -0.01 0
v -0 -0.01 0
v 0.01519076 -0 -0.01005187
v 0.01519076 -0.01 -0.01005187
v 0.01551176 -0.01 -0.01094409
v 0.01551176 -0 -0.01094409
v 0.01575335 -0.01 -0.01183137
v 0.01575335 -0 -0.01183137
v 0.01591491 -0.01 -0.01270424
v 0.01591491 -0 -0.01270424
v 0.01599977 -0.01 -0.01356563
v 0.01599977 -0 -0.01356563
v 0.01601025 -0.01 -0.01441865
v 0.01601025 -0 -0.01441865
v 0.0159476 -0.01 -0.01526647
v 0.0159476 -0 -0.01526647
v 0.01581197 -0.01 -0.01611224
v 0.01581197 -0 -0.01611224
v 0.01576168 -0.01 -0.01634533
v 0.01576168 -0 -0.01634533
v 0.01553081 -0.01 -0.01719515
v 0.01553081 -0 -0.01719515
v 0.01522386 -0.01 -0.0180476
v 0.01522386 -0 -0.0180476
v 0.0148371 -0.01 -0.01890762
v 0.0148371 -0 -0.01890762
v 0.0143664 -0.01 -0.01977774
v 0.0143664 -0 -0.01977774
v 0.01380675 -0.01 -0.02066029
v 0.01380675 -0 -0.02066029
v 0.01315235 -0.01 -0.02155733
v 0.01315235 -0 -0.02155733
v 0.01264675 -0.01 -0.02218034
v 0.01264675 -0 -0.02218034
vn 0 0 1
vn 0.8719 0 0.48969
vn 0.94095 0 0.33853
vn 0.96487 0 0.26272
vn 0.9833 0 0.182
vn 0.99518 0 0.09804
vn 0.99992 0 0.01229
vn 0.99728 0 -0.0737
vn 0.98738 0 -0.15834
vn 0.97751 0 -0.21089
vn 0.96502 0 -0.26217
vn 0.94086 0 -0.33879
vn 0.91202 0 -0.41014
vn 0.87955 0 -0.4758
vn 0.84451 0 -0.53553
vn 0.80788 0 -0.58935
vn 0.77647 0 -0.63015
vn -0.86871 -0 -0.49532
vn 0 1 0
vn 0 -1 0
f 1//1 2//1 3//1
f 3//1 2//1 4//1
f 5//2 1//2 6//2
f 6//2 1//2 3//2
f 5//3 6//3 7//3
f 5//3 7//3 8//3
f 8//4 7//4 9//4
f 8//4 9//4 10//4
f 10//5 9//5 11//5
f 10//5 11//5 12//5
f 12//6 11//6 13//6
f 12//6 13//6 14//6
f 14//7 13//7 15//7
f 14//7 15//7 16//7
f 16//8 15//8 17//8
f 16//8 17//8 18//8
f 18//9 17//9 19//9
f 18//9 19//9 20//9
f 20//10 19//10 21//10
f 20//10 21//10 22//10
f 22//11 21//11 23//11
f 22//11 23//11 24//11
f 24//12 23//12 25//12
f 24//12 25//12 26//12
f 26//13 25//13 27//13
f 26//13 27//13 28//13
f 28//14 27//14 29//14
f 28//14 29//14 30//14
f 30//15 29//15 31//15
f 30//15 31//15 32//15
f 32//16 31//16 33//16
f 32//16 33//16 34//16
f 34//17 33//17 35//17
f 34//17 35//17 36//17
f 2//18 36//18 4//18
f 4//18 36//18 35//18
f 34//19 36//19 2//19
f 20//19 22//19 2//19
f 28//19 30//19 2//19
f 2//19 30//19 32//19
f 2//19 32//19 34//19
f 8//19 2//19 5//19
f 5//19 2//19 1//19
f 22//19 24//19 2//19
f 2//19 24//19 26//19
f 2//19 26//19 28//19
f 8//19 10//19 2//19
f 2//19 10//19 12//19
f 2//19 12//19 14//19
f 14//19 16//19 2//19
f 2//19 16//19 18//19
f 2//19 18//19 20//19
f 35//20 33//20 4//20
f 4//20 33//20 31//20
f 4//20 31//20 29//20
f 11//20 9//20 4//20
f 9//20 7//20 4//20
f 4//20 7//20 6//20
f 4//20 6//20 3//20
f 29//20 27//20 4//20
f 4//20 27//20 25//20
f 4//20 25//20 23//20
f 23//20 21//20 4//20
f 4//20 21//20 19//20
f 4//20 19//20 17//20
f 17//20 15//20 4//20
f 4//20 15//20 13//20
f 4//20 13//20 11//20
# Vertices: 36, normals: 20, texture coordinates: 0, faces: 68

