# File generated by ImageToStl.com - Free Image and 3D model conversion tools

o obj1
v -0.01449171 -0 -0.02482913
v -0 -0 0
v -0.01449171 -0.01 -0.02482913
v -0 -0.01 0
v -0.01508641 -0.01 -0.02539351
v -0.01508641 -0 -0.02539351
v -0.01576263 -0.01 -0.02585709
v -0.01576263 -0 -0.02585709
v -0.01650348 -0.01 -0.02620827
v -0.01650348 -0 -0.02620827
v -0.01729044 -0.01 -0.02643827
v -0.01729044 -0 -0.02643827
v -0.01810381 -0.01 -0.02654134
v -0.01810381 -0 -0.02654134
v -0.01892325 -0.01 -0.02651489
v -0.01892325 -0 -0.02651489
v -0.01972828 -0.01 -0.0263596
v -0.01972828 -0 -0.0263596
v -0.02049877 -0.01 -0.02607934
v -0.02049877 -0 -0.02607934
v -0.02121544 -0.01 -0.02568112
v -0.02121544 -0 -0.02568112
v -0.02186037 -0.01 -0.0251749
v -0.02186037 -0 -0.0251749
v -0.02241743 -0.01 -0.02457334
v -0.02241743 -0 -0.02457334
v -0.02287271 -0.01 -0.02389149
v -0.02287271 -0 -0.02389149
v -0.02321479 -0.01 -0.02314639
v -0.02321479 -0 -0.02314639
v -0.00986697 -0 0
v -0.00986697 -0.01 0
vn 0.86366 0 -0.50408
vn 0.68838 0 -0.72535
vn 0.56543 0 -0.8248
vn 0.42834 0 -0.90362
vn 0.28053 0 -0.95985
vn 0.12571 0 -0.99207
vn -0.03226 -0 -0.99948
vn -0.18941 -0 -0.9819
vn -0.34184 -0 -0.93976
vn -0.48571 -0 -0.87412
vn -0.61743 -0 -0.78662
vn -0.73372 -0 -0.67945
vn -0.83165 -0 -0.55529
vn -0.9088 -0 -0.41724
vn -0.86628 0 0.49956
vn 0 0 1
vn -0 1 0
vn 0 -1 -0
f 1//1 2//1 3//1
f 3//1 2//1 4//1
f 1//2 3//2 5//2
f 1//2 5//2 6//2
f 6//3 5//3 7//3
f 6//3 7//3 8//3
f 8//4 7//4 9//4
f 8//4 9//4 10//4
f 10//5 9//5 11//5
f 10//5 11//5 12//5
f 12//6 11//6 13//6
f 12//6 13//6 14//6
f 14//7 13//7 15//7
f 14//7 15//7 16//7
f 16//8 15//8 17//8
f 16//8 17//8 18//8
f 18//9 17//9 19//9
f 18//9 19//9 20//9
f 20//10 19//10 21//10
f 20//10 21//10 22//10
f 22//11 21//11 23//11
f 22//11 23//11 24//11
f 24//12 23//12 25//12
f 24//12 25//12 26//12
f 26//13 25//13 27//13
f 26//13 27//13 28//13
f 28//14 27//14 29//14
f 28//14 29//14 30//14
f 31//15 30//15 32//15
f 32//15 30//15 29//15
f 2//16 31//16 4//16
f 4//16 31//16 32//16
f 31//17 2//17 1//17
f 31//17 1//17 30//17
f 30//17 1//17 6//17
f 30//17 6//17 8//17
f 20//17 22//17 30//17
f 8//17 10//17 30//17
f 30//17 10//17 12//17
f 30//17 12//17 14//17
f 14//17 16//17 30//17
f 30//17 16//17 18//17
f 30//17 18//17 20//17
f 22//17 24//17 30//17
f 30//17 24//17 26//17
f 30//17 26//17 28//17
f 32//18 29//18 4//18
f 4//18 29//18 27//18
f 4//18 27//18 3//18
f 11//18 9//18 27//18
f 9//18 7//18 27//18
f 27//18 7//18 5//18
f 27//18 5//18 3//18
f 27//18 25//18 23//18
f 23//18 21//18 27//18
f 27//18 21//18 19//18
f 27//18 19//18 17//18
f 17//18 15//18 27//18
f 27//18 15//18 13//18
f 27//18 13//18 11//18
# Vertices: 32, normals: 18, texture coordinates: 0, faces: 60

